<svg width="30" height="30" viewBox="0 0 30 30" fill="none" xmlns="http://www.w3.org/2000/svg">
<circle cx="15" cy="15" r="15" fill="url(#paint0_linear_1102_4376)"/>
<path d="M14.9978 10.8951C12.7264 10.8951 10.8932 12.7283 10.8932 14.9999C10.8932 17.2714 12.7264 19.1047 14.9978 19.1047C17.2693 19.1047 19.1025 17.2714 19.1025 14.9999C19.1025 12.7283 17.2693 10.8951 14.9978 10.8951ZM14.9978 17.6677C13.5289 17.6677 12.3301 16.4689 12.3301 14.9999C12.3301 13.5309 13.5289 12.3321 14.9978 12.3321C16.4668 12.3321 17.6656 13.5309 17.6656 14.9999C17.6656 16.4689 16.4668 17.6677 14.9978 17.6677ZM19.2707 9.77034C18.7403 9.77034 18.312 10.1986 18.312 10.729C18.312 11.2594 18.7403 11.6876 19.2707 11.6876C19.801 11.6876 20.2293 11.2614 20.2293 10.729C20.2294 10.6031 20.2048 10.4783 20.1566 10.3619C20.1085 10.2456 20.0379 10.1398 19.9489 10.0508C19.8598 9.96172 19.7541 9.89112 19.6377 9.843C19.5213 9.79487 19.3966 9.77019 19.2707 9.77034ZM22.9991 14.9999C22.9991 13.8951 23.0091 12.8004 22.9471 11.6976C22.885 10.4168 22.5928 9.28001 21.6562 8.34338C20.7176 7.40475 19.5829 7.11455 18.302 7.05251C17.1973 6.99047 16.1026 7.00047 14.9999 7.00047C13.8951 7.00047 12.8004 6.99047 11.6977 7.05251C10.4168 7.11455 9.28009 7.40675 8.34348 8.34338C7.40486 9.28201 7.11467 10.4168 7.05263 11.6976C6.99059 12.8024 7.0006 13.8971 7.0006 14.9999C7.0006 16.1026 6.99059 17.1994 7.05263 18.3021C7.11467 19.583 7.40686 20.7197 8.34348 21.6564C9.28209 22.595 10.4168 22.8852 11.6977 22.9472C12.8024 23.0093 13.8971 22.9993 14.9999 22.9993C16.1046 22.9993 17.1993 23.0093 18.302 22.9472C19.5829 22.8852 20.7196 22.593 21.6562 21.6564C22.5948 20.7177 22.885 19.583 22.9471 18.3021C23.0111 17.1994 22.9991 16.1046 22.9991 14.9999ZM21.238 19.7191C21.0919 20.0833 20.9157 20.3555 20.6336 20.6357C20.3514 20.9179 20.0812 21.094 19.717 21.2401C18.6643 21.6584 16.1646 21.5643 14.9978 21.5643C13.8311 21.5643 11.3294 21.6584 10.2767 21.2421C9.91251 21.096 9.64033 20.9199 9.36015 20.6377C9.07796 20.3555 8.90184 20.0853 8.75575 19.7211C8.33948 18.6664 8.43354 16.1667 8.43354 14.9999C8.43354 13.8331 8.33948 11.3314 8.75575 10.2787C8.90184 9.91444 9.07796 9.64226 9.36015 9.36207C9.64233 9.08188 9.91251 8.90376 10.2767 8.75766C11.3294 8.34138 13.8311 8.43544 14.9978 8.43544C16.1646 8.43544 18.6663 8.34138 19.719 8.75766C20.0832 8.90376 20.3554 9.07988 20.6356 9.36207C20.9177 9.64426 21.0939 9.91444 21.24 10.2787C21.6562 11.3314 21.5622 13.8331 21.5622 14.9999C21.5622 16.1667 21.6562 18.6664 21.238 19.7191Z" fill="white"/>
<defs>
<linearGradient id="paint0_linear_1102_4376" x1="15" y1="0" x2="15" y2="30" gradientUnits="userSpaceOnUse">
<stop stop-color="#7C23AA"/>
<stop offset="0.552083" stop-color="#C02D67"/>
<stop offset="1" stop-color="#DC8B43"/>
</linearGradient>
</defs>
</svg>
