<svg width="30" height="30" viewBox="0 0 30 30" fill="none" xmlns="http://www.w3.org/2000/svg">
<circle cx="15" cy="15" r="15" fill="#E47B2F"/>
<path d="M14.5003 6.99988C12.2889 6.99988 10.49 8.85221 10.49 11.1294C10.49 13.4064 12.2889 15.2579 14.5003 15.2579C16.7116 15.2579 18.5097 13.4064 18.5097 11.1294C18.5097 8.85221 16.7117 6.99988 14.5003 6.99988ZM14.5003 9.41938C15.4156 9.41938 16.1598 10.1869 16.1598 11.1294C16.1598 12.0715 15.4156 12.8384 14.5003 12.8384C13.5849 12.8384 12.8399 12.0715 12.8399 11.1294C12.8399 10.1869 13.5849 9.41938 14.5003 9.41938ZM11.194 15.3984C10.7972 15.392 10.4071 15.5934 10.1807 15.9649C9.83484 16.5307 10.0005 17.2774 10.5488 17.6334C11.2739 18.1019 12.0608 18.4343 12.8768 18.6259L10.6357 20.9349C10.1769 21.4076 10.1773 22.1732 10.6361 22.6459C10.8661 22.8818 11.1661 22.9999 11.4669 22.9999C11.7673 22.9999 12.0683 22.8816 12.2976 22.6454L14.4994 20.3769L16.7031 22.6454C17.1615 23.118 17.9049 23.118 18.3641 22.6454C18.8231 22.173 18.8231 21.4066 18.3641 20.9349L16.122 18.6264C16.9382 18.4348 17.7253 18.1022 18.45 17.6334C18.9993 17.2775 19.1652 16.5299 18.8195 15.9649C18.4733 15.3989 17.7485 15.2284 17.1988 15.5849C15.5571 16.6484 13.4417 16.6477 11.8004 15.5849C11.6115 15.4623 11.4018 15.4017 11.194 15.3984V15.3984Z" fill="white"/>
</svg>
