<svg width="30" height="30" viewBox="0 0 30 30" fill="none" xmlns="http://www.w3.org/2000/svg">
<circle cx="15" cy="15" r="15" fill="#4E7EC2"/>
<path fill-rule="evenodd" clip-rule="evenodd" d="M14.3615 19.9434H15.271C15.271 19.9434 15.5438 19.8958 15.6802 19.7531C15.8167 19.6104 15.8167 19.3249 15.8167 19.3249C15.8167 19.3249 15.8167 18.0881 16.3623 17.8978C16.908 17.7075 17.6356 19.1346 18.3631 19.6579C18.9088 20.0861 19.318 19.9909 19.318 19.9909L21.3188 19.9434C21.3188 19.9434 22.3647 19.8958 21.8645 18.9919C21.819 18.9444 21.5917 18.3735 20.3639 17.1842C19.0907 15.9474 19.2726 16.1852 20.7732 14.0445C21.6826 12.7601 22.0464 11.9989 21.9555 11.6184C21.8645 11.2854 21.1824 11.3805 21.1824 11.3805H18.9088C18.9088 11.3805 18.7269 11.3329 18.636 11.4281C18.4995 11.5232 18.4541 11.6659 18.4541 11.6659C18.4541 11.6659 18.0903 12.6649 17.6356 13.5212C16.6352 15.2814 16.2259 15.3765 16.0895 15.2814C15.7257 15.0435 15.8167 14.2348 15.8167 13.7115C15.8167 11.9989 16.0895 11.2854 15.3165 11.0951C15.0891 11.0475 14.9072 10.9999 14.2706 10.9999C13.4521 10.9999 12.77 10.9999 12.4062 11.1902C12.1334 11.3329 11.9515 11.6184 12.0879 11.6184C12.2243 11.6184 12.5881 11.7135 12.77 11.9514C12.9519 12.3795 12.9519 13.0931 12.9519 13.0931C12.9519 13.0931 13.0883 15.1386 12.6336 15.3765C12.3153 15.5668 11.906 15.1862 10.9965 13.5688C10.5418 12.7601 10.178 11.8087 10.178 11.8087C10.178 11.8087 10.1326 11.6184 9.99615 11.5232C9.85973 11.4281 9.63236 11.3805 9.63236 11.3805H7.49515C7.49515 11.3805 7.17684 11.3805 7.04042 11.5232C6.94947 11.6659 7.04042 11.9038 7.04042 11.9038C7.04042 11.9038 8.72291 15.9949 10.6328 18.0881C12.4062 20.0861 14.3615 19.9434 14.3615 19.9434Z" fill="white"/>
</svg>
